<?xml version="1.0" encoding="UTF-8"?>
<svg version="1.1" xmlns="http://www.w3.org/2000/svg" width="521" height="467">
<path d="M0 0 C171.93 0 343.86 0 521 0 C521 154.11 521 308.22 521 467 C349.07 467 177.14 467 0 467 C0 312.89 0 158.78 0 0 Z " fill="#FEFEFE" transform="translate(0,0)"/>
<path d="M0 0 C1.9375 1.0625 1.9375 1.0625 3 3 C4.55823771 9.90076699 4.55823771 9.90076699 2.85783386 13.24905396 C0.60607995 16.58328833 -2.0586488 19.33031692 -4.9050293 22.14794922 C-5.79349297 23.03926041 -5.79349297 23.03926041 -6.6999054 23.94857788 C-8.65316255 25.90552966 -10.61351222 27.85520168 -12.57421875 29.8046875 C-13.94118644 31.1704619 -15.30778337 32.53660747 -16.67402649 33.90310669 C-19.53830827 36.76582554 -22.40591307 39.62515871 -25.27612305 42.48193359 C-28.93821366 46.12709121 -32.59374455 49.77873939 -36.24699688 53.43275261 C-39.07014204 56.25562445 -41.8958971 59.07587155 -44.7225132 61.89526749 C-46.07017664 63.23976828 -47.41725247 64.58485836 -48.76370811 65.9305687 C-60.98185492 78.13455873 -60.98185492 78.13455873 -67.20075989 83.43081665 C-70.74213567 86.51938047 -74.04374283 89.86025178 -77.375 93.171875 C-78.14376465 93.93493958 -78.9125293 94.69800415 -79.70458984 95.48419189 C-81.31941717 97.08963355 -82.93284256 98.69648648 -84.54492188 100.3046875 C-86.98638768 102.73644182 -89.43833173 105.1572966 -91.890625 107.578125 C-101.4076141 117.02956718 -110.5742404 126.19607698 -116.4375 138.4375 C-116.91058594 139.40558594 -117.38367188 140.37367188 -117.87109375 141.37109375 C-119.5811838 145.35341419 -120.12024364 148.70761805 -120.17578125 153.03515625 C-120.55671141 171.07234929 -122.82226182 181.34887376 -136 194 C-138.52486586 196.38661911 -141.08054705 198.73796816 -143.65869141 201.06689453 C-149.49908493 206.36749152 -155.0272113 211.97253391 -160.55688477 217.59423828 C-164.61853125 221.70270621 -168.76937263 225.60514653 -173.14916992 229.37182617 C-175.89683797 231.78894769 -178.44880639 234.37871865 -181 237 C-184.18217244 240.26959476 -187.41653005 243.39612256 -190.875 246.375 C-195.12619575 250.05236514 -199.06572309 253.98888175 -203 258 C-207.52978713 262.61825953 -212.12959484 267.0319728 -217.03125 271.25390625 C-220.33738101 274.18612958 -223.40917665 277.34410669 -226.5 280.5 C-230.20564063 284.28365412 -233.92108371 287.98188126 -237.9375 291.4375 C-242.34986772 295.24215073 -246.41954966 299.34522452 -250.5 303.5 C-255.23352066 308.31974144 -260.02095626 312.95872589 -265.14257812 317.36523438 C-267.89201616 319.78508677 -270.4466141 322.37646614 -273 325 C-276.11630136 328.20191403 -279.27616163 331.27230348 -282.66796875 334.18359375 C-287.59289723 338.44764675 -292.22456864 343.00283478 -296.83813477 347.59790039 C-298.32063948 349.07058557 -299.81349769 350.53225236 -301.30664062 351.99414062 C-302.26367589 352.9446534 -303.22007905 353.89580314 -304.17578125 354.84765625 C-305.03083252 355.69336182 -305.88588379 356.53906738 -306.7668457 357.41040039 C-310.10717472 361.28389661 -312 364.40075488 -312 369.5625 C-310.75840014 373.83049951 -309.71202771 375.52531486 -306 378 C-301.75504865 378.69103859 -298.37404068 377.81415993 -294.69921875 375.63671875 C-288.88881925 371.2713927 -283.4639396 366.11465879 -278.78134632 360.55241585 C-272.36803278 352.97507892 -265.23455259 346.07042621 -258.22729492 339.05029297 C-256.72508309 337.54180761 -255.22305866 336.0331356 -253.72120667 334.52429199 C-248.81119789 329.59335867 -243.89595791 324.66765659 -238.98046875 319.7421875 C-237.28335139 318.04101923 -235.58626713 316.33981795 -233.88921547 314.63858414 C-225.91906252 306.64941062 -217.94652233 298.6626289 -209.97102946 290.67878616 C-200.78132122 281.47929571 -191.5999612 272.27157707 -182.42556304 263.05681884 C-175.31984083 255.92091643 -168.20644038 248.79272667 -161.0872677 241.67024338 C-156.84108642 237.42171531 -152.59825317 233.16996794 -148.36351585 228.91003036 C-144.38071513 224.90390863 -140.3884487 220.90746579 -136.38884544 216.91812134 C-134.92694031 215.45671056 -133.46842232 213.99190196 -132.01366043 212.52338028 C-112.96845229 193.30822227 -112.96845229 193.30822227 -101.56640625 192.8671875 C-100.23177249 192.86383962 -98.89711255 192.86676458 -97.5625 192.875 C-96.50059448 192.8735498 -96.50059448 192.8735498 -95.41723633 192.87207031 C-90.95390663 192.89411392 -86.62500747 193.22856627 -82.1875 193.75 C-73.70530598 194.46296563 -67.17578031 191.87506086 -60.4375 186.8125 C-50.78734139 178.61922825 -41.74447675 169.89464002 -32.80859375 160.94140625 C-31.56989348 159.70338116 -30.33104494 158.46550442 -29.09205627 157.22776794 C-26.51799819 154.65517236 -23.94572813 152.08080629 -21.37475586 149.50512695 C-18.07612798 146.2007543 -14.77296517 142.90095681 -11.46848965 139.6024332 C-8.91972971 137.05727726 -6.37334428 134.50975645 -3.8276844 131.96150017 C-2.60955283 130.74270135 -1.39067754 129.52464538 -0.17104912 128.30734444 C1.52324085 126.61558347 3.21431073 124.92066917 4.90454102 123.22485352 C5.66104446 122.47138641 5.66104446 122.47138641 6.43283081 121.70269775 C9.04454649 119.09836228 9.04454649 119.09836228 11 116 C11.66 116 12.32 116 13 116 C13.37125 115.13375 13.37125 115.13375 13.75 114.25 C15.18299988 111.67060021 16.78424676 109.93878408 19 108 C19.66 108 20.32 108 21 108 C21.2475 107.38125 21.495 106.7625 21.75 106.125 C23.23740369 103.59641373 24.43678009 103.28160996 27 102 C27.26039063 101.43498779 27.52078125 100.86997559 27.7890625 100.2878418 C29.45512574 97.14012433 31.86406534 94.86997558 34.375 92.39453125 C34.90013184 91.86985764 35.42526367 91.34518402 35.96630859 90.80461121 C37.07348018 89.70045227 38.18307277 88.59871628 39.29492188 87.49926758 C40.99930188 85.81319062 42.6954971 84.11920155 44.390625 82.42382812 C45.46827844 81.35108857 46.54638789 80.27880688 47.625 79.20703125 C48.38756104 78.44613945 48.38756104 78.44613945 49.16552734 77.6698761 C52.55544007 74.3256007 53.99676449 73.11512539 58.8125 72.5625 C62.5555686 72.61022583 62.95107056 72.95718674 66 75.625 C69.02491103 80.72953737 69.02491103 80.72953737 68 85 C62.36477407 92.75130142 54.78097456 99.2898205 47.97021484 106.00927734 C46.4675623 107.49359897 44.96811835 108.98111204 43.46875 110.46875 C42.58638672 111.33951172 41.70402344 112.21027344 40.79492188 113.10742188 C38.69675945 115.22981524 36.73648987 117.43947009 34.79139709 119.70265198 C31.18594999 123.83639656 27.40774617 127.75995493 23.54272461 131.65014648 C22.47764679 132.72749054 22.47764679 132.72749054 21.39105225 133.82659912 C19.06448679 136.17776404 16.73398841 138.52496624 14.40234375 140.87109375 C13.59879519 141.67996599 12.79524662 142.48883823 11.9673481 143.32222176 C7.7139597 147.60222998 3.45697397 151.87862681 -0.80249023 156.15258789 C-4.30370453 159.66713147 -7.79751147 163.18879091 -11.28491211 166.71704102 C-15.52223722 171.00397349 -19.77197619 175.27822831 -24.03063774 179.54396248 C-25.6394378 181.15942482 -27.24402244 182.77909785 -28.84404182 184.40325737 C-40.41519655 196.13898371 -51.89873263 206.93443274 -68 212 C-68.56162842 212.18159668 -69.12325684 212.36319336 -69.7019043 212.55029297 C-72.80664031 213.15784887 -75.69528166 212.98048161 -78.85546875 212.8515625 C-80.21414296 212.81453362 -81.57287104 212.77944012 -82.93164062 212.74609375 C-85.05463589 212.69084943 -87.17469542 212.62559598 -89.29614258 212.52685547 C-91.35804808 212.43478675 -93.4169428 212.38960747 -95.48046875 212.3515625 C-96.70660889 212.30854004 -97.93274902 212.26551758 -99.19604492 212.22119141 C-107.64356903 213.95070825 -114.16265306 221.87133556 -120.07080078 227.82788086 C-120.82164948 228.57683121 -121.57249817 229.32578156 -122.34609985 230.09742737 C-124.80073522 232.54839001 -127.24814843 235.0064232 -129.6953125 237.46484375 C-131.41409357 239.18481881 -133.13324655 240.90442229 -134.85275269 242.62367249 C-138.44482074 246.21729942 -142.03352116 249.81424375 -145.61962891 253.41381836 C-150.20179719 258.01298176 -154.79052621 262.60552938 -159.38157845 267.19582272 C-162.9284553 270.74297231 -166.47271368 274.29272849 -170.01610947 277.84335518 C-171.70670272 279.53711592 -173.39788935 281.23028462 -175.08969498 282.9228344 C-177.45831188 285.293635 -179.82359855 287.66770916 -182.18798828 290.04272461 C-182.87803955 290.73232269 -183.56809082 291.42192078 -184.27905273 292.13241577 C-188.17252116 296.05131699 -191.84168976 300.06745643 -195.35276604 304.33443546 C-197 306 -197 306 -199.07885933 306.97672939 C-201.52275379 308.27843801 -201.87679103 309.51704713 -203 312 C-204.41790676 313.67517567 -204.41790676 313.67517567 -206.08970642 315.35713196 C-206.72444885 316.00040436 -207.35919128 316.64367676 -208.01316833 317.30644226 C-208.70870316 318.00107071 -209.40423798 318.69569916 -210.12084961 319.41137695 C-210.85449738 320.15174194 -211.58814514 320.89210693 -212.34402466 321.65490723 C-214.77481462 324.10471584 -217.213101 326.54689064 -219.65234375 328.98828125 C-221.34964055 330.69200634 -223.04678703 332.39588121 -224.74378967 334.09989929 C-228.30714998 337.67524423 -231.87463076 341.24642027 -235.44458008 344.81518555 C-240.00064983 349.37105275 -244.54284569 353.94047971 -249.08151913 358.51366901 C-252.58612915 362.04061443 -256.09989179 365.55833265 -259.61621284 369.07359886 C-261.29342176 370.75315647 -262.96741525 372.43593178 -264.63801384 374.12206459 C-287.46948338 397.14576265 -287.46948338 397.14576265 -301.75 397.25 C-302.78640625 397.2809375 -302.78640625 397.2809375 -303.84375 397.3125 C-312.76325455 397.37956394 -319.72871125 393.1011375 -326 387 C-327.75219179 384.4504625 -328.92130323 381.89043058 -330 379 C-330.4125 378.05125 -330.825 377.1025 -331.25 376.125 C-333.4737277 366.85946793 -331.61433915 359.6741526 -327.01171875 351.4453125 C-320.40067851 340.92548582 -310.13488752 332.42334171 -300.8125 324.34765625 C-297.20318496 321.22099263 -293.83579698 317.91405614 -290.5 314.5 C-286.49344872 310.44295803 -282.4411067 306.560008 -278.08984375 302.87109375 C-275.28089466 300.3561655 -272.64891383 297.68164678 -270 295 C-266.77601619 291.73617703 -263.56482179 288.53169881 -260.0625 285.5625 C-255.72215683 281.87456749 -251.7830992 277.80905457 -247.78198242 273.76245117 C-244.31981052 270.27613511 -240.77170886 266.98360118 -237.0234375 263.8046875 C-233.48840996 260.6518251 -230.21417963 257.23138877 -226.90625 253.84375 C-224.7820975 251.71359707 -222.56475078 249.73919143 -220.28125 247.78125 C-215.26724543 243.4395671 -210.65214109 238.72262807 -206 234 C-200.76778889 228.68851296 -195.52828446 223.49852403 -189.8671875 218.64453125 C-186.76310205 215.91059825 -183.89225454 212.95440959 -181 210 C-173.76810323 202.68428827 -173.76810323 202.68428827 -170.0625 199.5625 C-165.26663284 195.51404071 -160.93228535 190.98110824 -156.54125977 186.50415039 C-155.92822998 185.8827417 -155.3152002 185.26133301 -154.68359375 184.62109375 C-154.07499512 184.00347168 -153.46639648 183.38584961 -152.83935547 182.74951172 C-151.07035988 181.06692313 -149.22761945 179.63473063 -147.28515625 178.16015625 C-142.41318483 174.02270487 -140.45567863 168.53806017 -139.65185547 162.296875 C-139.49398589 159.52549681 -139.43944379 156.77572941 -139.4375 154 C-139.38627902 143.55092062 -137.58839045 135.07495963 -132.3125 126 C-131.68988281 124.906875 -131.06726563 123.81375 -130.42578125 122.6875 C-124.41717224 113.15992316 -116.51022093 105.20937731 -108.5703125 97.3046875 C-107.48765428 96.22067861 -106.40529281 95.13637327 -105.32321167 94.05178833 C-103.07579717 91.80145156 -100.8248712 89.55470657 -98.57128906 87.31054688 C-95.67928021 84.43004156 -92.79649242 81.54049897 -89.91618538 78.64829826 C-87.69281582 76.4177249 -85.46473425 74.19190771 -83.23516464 71.96753311 C-82.16912841 70.90283181 -81.104578 69.83664071 -80.04153824 68.7689476 C-78.56517871 67.28753535 -77.08260861 65.81264017 -75.59814453 64.33935547 C-74.75623566 63.49903778 -73.91432678 62.65872009 -73.04690552 61.79293823 C-71 60 -71 60 -69 60 C-68.34 58.68 -67.68 57.36 -67 56 C-66.34 56 -65.68 56 -65 56 C-65 55.34 -65 54.68 -65 54 C-64.34 54 -63.68 54 -63 54 C-63 53.34 -63 52.68 -63 52 C-62.34 52 -61.68 52 -61 52 C-61 51.34 -61 50.68 -61 50 C-59.60568237 48.62692261 -59.60568237 48.62692261 -57.63232422 47.00341797 C-52.43949419 42.58430637 -47.67958847 37.78666284 -42.8828125 32.9453125 C-41.93526338 31.99334711 -40.98741224 31.04168226 -40.03927612 30.09030151 C-37.06498998 27.10470643 -34.09471867 24.11513736 -31.125 21.125 C-27.65985667 17.6362152 -24.19306549 14.14909978 -20.7220726 10.66613388 C-19.33846999 9.27605499 -17.95792505 7.88293484 -16.5774231 6.48977661 C-15.32504349 5.23244217 -15.32504349 5.23244217 -14.04736328 3.94970703 C-13.31204376 3.2091507 -12.57672424 2.46859436 -11.81912231 1.70559692 C-8.11352413 -1.76874717 -4.69638915 -1.04898856 0 0 Z " fill="#030202" transform="translate(409,31)"/>
<path d="M0 0 C3.35940753 0.80667739 4.8439196 2.22745512 7.34738159 4.59176636 C8.21965393 5.41046204 9.09192627 6.22915771 9.9906311 7.07266235 C14.05733755 11.01632056 18.08949971 14.98777052 22.07443237 19.01412964 C22.92915131 19.87263519 23.78387024 20.73114075 24.66448975 21.61566162 C27.3635083 24.32676556 30.0592296 27.04110998 32.75411987 29.75631714 C36.3162653 33.34521209 39.88181685 36.93067321 43.44943237 40.51412964 C44.25172272 41.32471832 45.05401306 42.13530701 45.88061523 42.97045898 C49.32085201 46.42549345 52.76885119 49.8059804 56.47433472 52.97653198 C61.45640423 57.26497839 66.04899384 61.9392311 70.6754303 66.60246277 C72.3224587 68.26244773 73.97275939 69.91911949 75.62387085 71.57504272 C79.7210154 75.68543937 83.81264891 79.80130748 87.90444946 83.91702271 C91.37407712 87.40649935 94.84582784 90.89383822 98.32032776 94.37846375 C99.9330457 95.99758485 101.54268206 97.61972497 103.15219116 99.24203491 C107.88474251 103.99799581 112.6623482 108.63091448 117.76379395 112.99530029 C121.18824794 115.99877777 124.37913388 119.23891208 127.59396362 122.46334839 C128.31274185 123.18116989 129.03152008 123.89899139 129.77207947 124.63856506 C131.27488917 126.14069966 132.77645854 127.64407611 134.27682495 129.14865112 C136.58126747 131.45849909 138.89106376 133.76289805 141.2013855 136.06686401 C142.66589937 137.53203786 144.13010345 138.99752143 145.59396362 140.46334839 C146.28554062 141.15290115 146.97711761 141.84245392 147.68965149 142.55290222 C148.64183311 143.50981209 148.64183311 143.50981209 149.61325073 144.48605347 C150.17314194 145.04674026 150.73303314 145.60742706 151.30989075 146.18510437 C153.32144253 148.39027997 153.64887086 149.7547608 154.12911987 152.75631714 C153.1041275 160.70000806 144.88638641 166.46295214 139.19161987 171.69381714 C137.78772337 172.99432784 136.38408541 174.29511769 134.98068237 175.59616089 C134.26557495 176.25728882 133.55046753 176.91841675 132.81369019 177.59957886 C130.62102057 179.63884982 128.44680114 181.69606917 126.27755737 183.76022339 C125.57171509 184.42981079 124.8658728 185.09939819 124.13864136 185.78927612 C122.7967777 187.06315328 121.45756873 188.33983507 120.12155151 189.61984253 C118.31828589 191.3247696 116.49041536 192.99004375 114.62911987 194.63131714 C114.05564819 195.1388855 113.48217651 195.64645386 112.8913269 196.16940308 C109.39335552 198.98795508 106.54548126 200.44000628 101.865448 200.11569214 C97.05192997 199.07311356 92.75539375 196.8296765 88.37911987 194.63131714 C87.35423462 194.1265686 86.32934937 193.62182007 85.27340698 193.10177612 C77.95307781 189.43724553 71.19790629 185.53339656 64.62911987 180.63131714 C63.34713032 179.70605806 62.06453356 178.78163996 60.78146362 177.85787964 C52.19274108 171.60894536 44.34142184 164.92673792 36.62911987 157.63131714 C34.86282501 156.04292248 33.09220575 154.45931902 31.31661987 152.88131714 C23.65289719 145.97420402 17.04833349 138.72099715 10.62911987 130.63131714 C9.81056519 129.61811401 8.9920105 128.60491089 8.14865112 127.56100464 C1.85938439 119.68049236 -3.45403185 111.42742784 -8.37088013 102.63131714 C-8.99994263 101.52272339 -9.62900513 100.41412964 -10.27713013 99.27194214 C-18.3407469 84.2057108 -23.78013364 66.1690403 -23.74588013 49.00631714 C-23.7442688 48.14675415 -23.74265747 47.28719116 -23.74099731 46.40158081 C-23.44246245 30.56898915 -18.07276739 14.23525626 -7.94119263 1.88912964 C-5.37250263 -0.16837827 -3.21106415 -0.16509338 0 0 Z " fill="#030202" transform="translate(98.37088012695313,41.368682861328125)"/>
<path d="M0 0 C4.78274105 2.09529608 8.35327323 6.31191313 12.05078125 9.8984375 C13.37523582 11.07517408 14.70791381 12.24275764 16.05078125 13.3984375 C21.64058114 18.26986953 27.12613023 23.257389 32.62890625 28.2265625 C36.3503338 31.58269655 40.07470216 34.93067929 43.86328125 38.2109375 C48.08143901 41.8815048 52.16855195 45.68958437 56.26831055 49.4909668 C59.80397925 52.76370705 63.38329099 55.97297124 67.02734375 59.125 C69.56579296 61.34981842 72.05719901 63.62347069 74.55078125 65.8984375 C77.66985136 68.74367978 80.79833516 71.5704333 83.98828125 74.3359375 C87.39766705 77.2972726 90.72872435 80.33996236 94.05078125 83.3984375 C98.00669771 87.04009031 101.99639676 90.63343186 106.05859375 94.15625 C109.2753925 96.96937205 112.43807831 99.84203192 115.6015625 102.71484375 C117.11515331 104.06428117 118.6505856 105.39016899 120.21875 106.67578125 C126.77388295 112.0644302 133.43767029 119.07000295 134.359375 127.83203125 C134.74305912 138.26126336 132.62676488 145.48676892 125.84765625 153.50390625 C118.81023591 160.46187185 110.7940898 163.84223477 100.92578125 164.4609375 C88.14422796 163.74858979 80.13419131 153.64663258 72.15625 144.796875 C71.07333774 143.55850818 69.99795036 142.31352591 68.9296875 141.0625 C61.62776944 132.65239063 53.86578704 124.61962105 46.26123047 116.48388672 C42.52997682 112.49014312 38.81523313 108.48184022 35.11328125 104.4609375 C30.50789981 99.46339305 25.8804933 94.48679084 21.23828125 89.5234375 C20.62799072 88.86931885 20.0177002 88.2152002 19.38891602 87.54125977 C16.41074141 84.36219102 13.39996864 81.22954007 10.30859375 78.16015625 C8.011421 75.87871976 5.81844074 73.56979371 3.73828125 71.0859375 C0.97460096 67.87509995 -1.93541471 64.87576585 -4.94921875 61.8984375 C-8.53087296 58.36000084 -11.89190411 54.73211862 -15.16015625 50.90625 C-17.23307089 48.57987855 -19.41916381 46.39959922 -21.63671875 44.2109375 C-30.88606771 34.96158854 -30.88606771 34.96158854 -31.2734375 28.19921875 C-30.61401779 23.51972227 -27.24476579 21.03395798 -23.94921875 17.8984375 C-22.72298867 16.658472 -21.50067724 15.41462502 -20.28125 14.16796875 C-17.65682726 11.49796528 -15.02809611 8.83294943 -12.375 6.19140625 C-11.81208252 5.6296167 -11.24916504 5.06782715 -10.66918945 4.48901367 C-4.81215158 -0.92739538 -4.81215158 -0.92739538 0 0 Z " fill="#030202" transform="translate(313.94921875,260.1015625)"/>
<path d="M0 0 C0.66 0 1.32 0 2 0 C3.55078125 1.609375 3.55078125 1.609375 5.3125 3.75 C7.98762235 6.91761349 10.73925686 9.43092965 14 12 C14 12.66 14 13.32 14 14 C14.54624527 14.22092819 15.09249054 14.44185638 15.6552887 14.66947937 C18.74375854 16.42205029 21.04335138 18.78084971 23.51538086 21.28833008 C24.32350975 22.09602089 24.32350975 22.09602089 25.14796448 22.92002869 C26.92504033 24.69849587 28.69492591 26.48394268 30.46484375 28.26953125 C31.70224447 29.51066534 32.94008989 30.7513562 34.17835999 31.99162292 C37.43757539 35.25847032 40.69074643 38.53127289 43.94268799 41.80535889 C47.24140719 45.1244661 50.54572151 48.43799224 53.84960938 51.75195312 C59.19304392 57.11295183 64.53308716 62.4773001 69.86849976 67.84628296 C71.24515537 69.23136352 72.62256228 70.61569723 74 72 C74.84397339 72.85481461 75.68794678 73.70962921 76.55749512 74.59034729 C78.88492879 76.88647652 81.27440677 79.0673812 83.72485352 81.23095703 C88.78663042 85.76219632 93.61510576 90.48625427 98.40234375 95.3046875 C99.24672501 96.1504837 100.09110626 96.99627991 100.96107483 97.8677063 C103.62227095 100.53443557 106.27994669 103.20464095 108.9375 105.875 C110.74520876 107.68773333 112.55314954 109.50023532 114.36132812 111.3125 C118.31833739 115.27927535 122.27313922 119.24823582 126.22593689 123.21920776 C127.81540426 124.81470407 129.40689133 126.40814053 131 128 C126.47494705 133.49470715 121.59827366 138.35869232 116.375 143.1875 C114.88232707 144.57630136 113.39012422 145.96560817 111.8984375 147.35546875 C111.24536621 147.96028076 110.59229492 148.56509277 109.91943359 149.18823242 C108.53789491 150.49227701 107.20380926 151.84726188 105.90283203 153.23168945 C104 155 104 155 101.65625 154.9375 C85.61588268 149.27619389 72.20023976 138.41168911 59 128 C58.05125 127.25878906 57.1025 126.51757812 56.125 125.75390625 C46.4244273 118.02376238 37.87960168 109.4393117 30.171875 99.72265625 C28.75922026 97.95175633 27.31246434 96.20735547 25.828125 94.49609375 C15.34834208 82.32542387 6.90032715 67.94183566 1 53 C0.74460449 52.35804687 0.48920898 51.71609375 0.22607422 51.0546875 C-6.16747963 34.32235927 -5.88398332 16.81138092 0 0 Z " fill="#FDFDFD" transform="translate(98,66)"/>
<path d="M0 0 C4.14689982 1.66077299 7.06716167 4.65980945 10.25 7.6875 C11.41725351 8.78201327 12.58521929 9.87576745 13.75390625 10.96875 C14.31480957 11.4946875 14.87571289 12.020625 15.45361328 12.5625 C17.9318284 14.86621497 20.48461939 17.07932331 23.04296875 19.29296875 C26.25792208 22.09722944 29.41199345 24.96901227 32.578125 27.828125 C34.61801202 29.65744304 36.67603782 31.45965658 38.75 33.25 C43.21834074 37.13709317 47.52702107 41.19344657 51.85742188 45.23242188 C55.54297567 48.66407315 59.26581964 52.03716055 63.078125 55.328125 C65.41105074 57.35758073 67.70511245 59.427647 70 61.5 C72.93678465 64.15113994 75.88602542 66.78290171 78.875 69.375 C82.84097076 72.82716078 86.70517646 76.38750881 90.57324219 79.94824219 C94.00408917 83.10132294 97.4782365 86.19482544 100.99609375 89.25 C104.27238813 92.11116936 107.51396048 95.0085401 110.72265625 97.9453125 C112.02984644 99.1246985 113.35987756 100.28178333 114.74609375 101.3671875 C116.78401955 103.04140417 117.89008081 104.50994359 118.46875 107.08984375 C118.74241875 111.20171673 118.36418404 114.13246162 115.8125 117.4375 C112.22179341 120.70903267 109.83609147 121.68067974 105.125 122.5 C98.44739309 121.43158289 94.24714147 115.29414599 90.0546875 110.375 C87.57408646 107.50768929 85.01286468 104.71932851 82.4375 101.9375 C81.92944824 101.38835937 81.42139648 100.83921875 80.89794922 100.2734375 C76.32736867 95.34109557 71.7346543 90.42942419 67.14233398 85.51733398 C63.57385063 81.69701556 60.02709296 77.85856719 56.5 74 C52.21184154 69.31042403 47.89577026 64.64792681 43.5625 60 C42.97082031 59.36449219 42.37914062 58.72898437 41.76953125 58.07421875 C39.41855017 55.55608076 37.07654856 53.07344691 34.58984375 50.6875 C33 49 33 49 33 47 C32.34 47 31.68 47 31 47 C29.484375 45.4609375 29.484375 45.4609375 27.75 43.375 C25.45339927 40.65952241 23.12849225 38.08737736 20.5625 35.625 C18 33 18 33 18 31 C17.34 31 16.68 31 16 31 C14.625 29.6015625 14.625 29.6015625 13 27.625 C10.1119288 24.21127567 7.07722399 21.05847353 3.875 17.9375 C0.06932856 14.18404051 -3.08362358 10.47177718 -6 6 C-4.02 4.02 -2.04 2.04 0 0 Z " fill="#FCFBFB" transform="translate(311,283)"/>
<path d="M0 0 C3.12671996 2.13933471 3.88346974 3.66335702 5.125 7.25 C4.85069903 15.47902899 -2.77709058 20.94341761 -8.25 26.5 C-8.87656494 27.13623291 -9.50312988 27.77246582 -10.14868164 28.42797852 C-10.74414795 29.01893311 -11.33961426 29.6098877 -11.953125 30.21875 C-12.49098633 30.75435547 -13.02884766 31.28996094 -13.58300781 31.84179688 C-15 33 -15 33 -17 33 C-17 33.66 -17 34.32 -17 35 C-17.66 35 -18.32 35 -19 35 C-19 35.66 -19 36.32 -19 37 C-19.66 37 -20.32 37 -21 37 C-21 37.66 -21 38.32 -21 39 C-22.28514099 40.25772095 -22.28514099 40.25772095 -24.17358398 41.79150391 C-29.91255137 46.67645034 -35.10326545 52.07263513 -40.37324715 57.45090866 C-43.56543617 60.70457945 -46.77351852 63.94254782 -49.97851562 67.18359375 C-54.03761016 71.29065138 -58.09192352 75.40215529 -62.13110352 79.52880859 C-65.41464526 82.88262929 -68.71267243 86.22158189 -72.02081108 89.55113602 C-73.27373029 90.81762083 -74.52122512 92.0894965 -75.76304817 93.36686325 C-77.49770279 95.14984261 -79.25025353 96.91321956 -81.00805664 98.67333984 C-81.51266418 99.20109009 -82.01727173 99.72884033 -82.53717041 100.27258301 C-86.15446182 103.83924965 -88.93238289 104.93608031 -94 105 C-98.042142 102.60465659 -99.65766701 101.04601748 -101.125 96.5625 C-100.85390441 88.83627572 -93.8867461 83.60123298 -88.71484375 78.45605469 C-87.88187775 77.61958405 -87.04891174 76.7831134 -86.19070435 75.92129517 C-83.91762626 73.64094908 -81.64013974 71.36512869 -79.36024857 69.09159756 C-76.97015228 66.7065847 -74.584962 64.31667335 -72.19897461 61.92755127 C-68.19450677 57.91945202 -64.18585637 53.91557229 -60.17480469 49.9140625 C-55.54036071 45.29051635 -50.91318556 40.65978939 -46.28969097 36.02529597 C-42.31364463 32.04017098 -38.33371075 28.05895999 -34.35050678 24.08098912 C-31.97409723 21.70769417 -29.5990516 19.33307668 -27.22750854 16.95491791 C-24.58486158 14.3072029 -21.9359073 11.66596541 -19.28515625 9.02636719 C-18.50165802 8.2388205 -17.71815979 7.4512738 -16.91091919 6.63986206 C-16.18758392 5.92216644 -15.46424866 5.20447083 -14.71899414 4.46502686 C-14.09368301 3.84046978 -13.46837189 3.2159127 -12.82411194 2.57242966 C-8.49641789 -1.15814977 -5.57614503 -1.39403626 0 0 Z " fill="#020101" transform="translate(429,57)"/>
<path d="M0 0 C3.17610799 3.25357403 3.98269689 5.01372261 4.0625 9.5625 C2.79173878 13.6737863 1.195091 15.16798752 -2 18 C-2.91178825 19.09102868 -3.80788861 20.19536743 -4.6875 21.3125 C-5.8321875 22.6428125 -5.8321875 22.6428125 -7 24 C-7.66 24 -8.32 24 -9 24 C-9.40147845 24.88862134 -9.40147845 24.88862134 -9.81106758 25.79519463 C-11.01554268 28.02882299 -12.23661985 29.48808657 -14.0229187 31.27688599 C-14.64253479 31.90214172 -15.26215088 32.52739746 -15.90054321 33.17160034 C-16.57902313 33.8460318 -17.25750305 34.52046326 -17.95654297 35.21533203 C-18.67217407 35.93446777 -19.38780518 36.65360352 -20.12512207 37.39453125 C-22.49246925 39.77068215 -24.86705923 42.13944116 -27.2421875 44.5078125 C-28.88913783 46.15610986 -30.53579115 47.80470404 -32.18215942 49.45358276 C-35.63398209 52.90835486 -39.08939866 56.35948133 -42.54736328 59.80810547 C-46.98178214 64.23113002 -51.40716303 68.66307134 -55.82989311 73.09778023 C-59.22857895 76.50368947 -62.63200959 79.90482513 -66.03689957 83.3045311 C-67.67066455 84.93696092 -69.3029424 86.57088048 -70.93371201 88.20630264 C-73.21256252 90.49022611 -75.4977157 92.76765 -77.78466797 95.04345703 C-78.45909943 95.72193695 -79.13353088 96.40041687 -79.82839966 97.09945679 C-80.4536554 97.71907288 -81.07891113 98.33868896 -81.72311401 98.9770813 C-82.53223897 99.78507518 -82.53223897 99.78507518 -83.35770988 100.60939217 C-86.08843537 102.92163177 -88.40290728 103.9110713 -91.9375 104.4375 C-95 104 -95 104 -97.8125 101.9375 C-100.52824556 98.29064168 -101.30939395 96.56356078 -101 92 C-99.74224567 90.19235134 -99.74224567 90.19235134 -98.01399231 88.30723572 C-97.37295374 87.60585417 -96.73191517 86.90447262 -96.07145119 86.18183708 C-92.60784597 82.53365925 -89.08792795 78.94901102 -85.52612305 75.39672852 C-84.70901352 74.57786667 -83.89190399 73.75900482 -83.05003357 72.91532898 C-80.37308974 70.23401589 -77.6925432 67.556339 -75.01171875 64.87890625 C-73.14306771 63.00958115 -71.27456511 61.14010766 -69.40620422 59.27049255 C-65.50363527 55.36611206 -61.59897945 51.46382793 -57.69311523 47.56274414 C-53.17691312 43.05200562 -48.66435548 38.53764514 -44.153629 34.02143151 C-39.80484488 29.66756943 -35.45326286 25.31651524 -31.1004734 20.96665764 C-29.2508884 19.11774102 -27.40204955 17.26807768 -25.5539608 15.41766548 C-22.98068104 12.84185874 -20.40423945 10.26925782 -17.8269043 7.69750977 C-16.67599304 6.54356216 -16.67599304 6.54356216 -15.50183105 5.36630249 C-14.45269783 4.321399 -14.45269783 4.321399 -13.38237 3.25538635 C-12.46960564 2.34318754 -12.46960564 2.34318754 -11.5384016 1.41256046 C-8.05747451 -1.78362704 -4.30153602 -1.365971 0 0 Z " fill="#040303" transform="translate(451,80)"/>
</svg>
